<?xml version="1.0" encoding="UTF-8" ?>
<!DOCTYPE svg PUBLIC "-//W3C//DTD SVG 1.1//EN" "http://www.w3.org/Graphics/SVG/1.1/DTD/svg11.dtd">
<svg width="506pt" height="258pt" viewBox="0 0 506 258" version="1.1" xmlns="http://www.w3.org/2000/svg">
<g id="#df691aff">
<path fill="#df691a" opacity="1.00" d=" M 65.30 86.61 C 66.42 85.78 67.50 84.64 69.02 84.80 C 81.34 84.33 93.67 84.45 105.99 84.50 C 103.80 88.00 101.70 91.86 98.23 94.25 C 93.28 96.50 88.09 98.37 82.73 99.32 C 79.27 101.65 74.34 101.30 71.67 104.85 C 69.20 107.60 69.51 111.54 69.48 114.98 C 69.60 125.62 69.30 136.28 69.76 146.90 C 69.49 151.12 72.93 154.79 77.01 155.34 C 84.01 156.89 90.67 159.79 97.68 161.15 C 101.11 164.34 103.90 168.15 105.95 172.36 C 96.30 172.98 86.61 172.64 76.95 172.56 C 69.36 171.90 60.74 169.36 56.85 162.21 C 54.05 158.76 51.73 154.52 51.97 149.94 C 52.00 136.29 52.01 122.64 51.98 108.98 C 51.33 99.89 56.38 89.79 65.30 86.61 Z" />
<path fill="#df691a" opacity="1.00" d=" M 138.16 84.35 C 150.12 84.45 162.10 84.09 174.05 84.80 C 184.89 86.33 193.34 97.11 192.63 108.03 C 191.84 123.02 193.36 138.03 192.06 153.00 C 190.71 163.25 181.02 170.43 171.46 172.38 C 160.54 172.77 149.56 172.98 138.65 172.29 C 138.79 171.65 138.94 171.01 139.09 170.37 C 140.87 168.65 142.26 166.59 143.24 164.31 C 144.51 163.39 145.71 162.38 146.85 161.31 C 153.14 160.20 158.83 156.98 165.12 155.79 C 169.70 155.14 174.74 151.96 174.84 146.85 C 175.13 134.89 174.79 122.91 175.05 110.95 C 175.21 108.02 173.43 105.59 171.96 103.25 C 170.03 102.49 168.14 101.68 166.24 100.87 C 159.58 98.85 152.89 96.93 146.25 94.81 C 142.81 91.92 141.19 87.60 138.16 84.35 Z" />
<path fill="#df691a" opacity="1.00" d=" M 244.34 87.56 C 258.92 87.81 273.52 87.70 288.11 87.60 C 288.04 90.64 288.21 93.68 288.02 96.71 C 287.51 96.85 286.50 97.12 286.00 97.26 C 286.00 118.19 286.01 139.13 286.00 160.07 C 285.93 164.65 281.89 167.57 278.51 169.98 C 272.72 170.75 266.77 170.96 260.98 170.15 C 261.52 167.23 259.66 163.18 262.21 161.08 C 266.09 160.83 270.00 161.07 273.89 160.99 C 274.63 160.29 275.37 159.60 276.12 158.92 C 276.33 157.31 276.54 155.70 276.55 154.07 C 276.44 137.37 276.57 120.67 276.48 103.96 C 276.46 101.62 276.64 99.28 276.84 96.95 C 265.94 97.00 255.04 97.01 244.14 96.98 C 244.28 93.84 244.18 90.69 244.34 87.56 Z" />
<path fill="#df691a" opacity="1.00" d=" M 214.33 87.51 C 223.30 87.61 232.26 87.67 241.23 87.76 C 241.65 91.57 241.51 95.50 240.33 99.16 C 239.84 102.62 239.60 106.12 238.76 109.53 C 237.58 112.83 237.91 116.46 237.07 119.87 C 238.62 120.28 240.84 119.41 241.92 120.97 C 242.13 131.65 241.92 142.34 242.02 153.02 C 242.25 156.17 241.00 159.49 238.20 161.17 C 234.88 163.82 230.38 162.89 226.49 162.67 C 226.39 159.56 226.36 156.46 226.33 153.35 C 228.16 153.25 229.99 153.13 231.82 152.98 C 231.98 152.33 232.30 151.02 232.47 150.36 C 232.42 143.63 232.85 136.85 231.99 130.16 C 230.00 130.28 228.03 130.40 226.05 130.53 C 225.46 125.44 228.50 120.88 228.15 115.78 C 230.18 109.72 230.23 103.32 231.02 97.04 C 228.62 96.99 226.22 96.96 223.82 96.90 C 223.64 115.59 223.82 134.30 223.76 153.00 C 223.69 158.43 224.00 163.87 223.39 169.27 C 220.56 169.83 216.41 171.33 214.26 168.90 C 213.65 152.61 214.18 136.25 214.00 119.94 C 214.15 109.13 213.65 98.31 214.33 87.51 Z" />
<path fill="#df691a" opacity="1.00" d=" M 300.88 87.71 C 322.51 87.44 344.17 87.79 365.81 87.71 C 366.20 102.50 365.93 117.32 365.97 132.12 C 366.20 133.76 364.42 134.39 363.10 134.18 C 354.73 134.25 346.37 134.16 338.01 134.18 C 338.00 137.10 337.99 140.02 338.00 142.94 C 347.32 142.95 356.65 142.94 365.98 142.95 C 365.83 145.81 366.49 148.87 365.58 151.63 C 356.47 152.48 347.20 151.69 338.03 151.96 C 338.00 154.97 337.99 157.98 338.00 161.00 C 348.61 161.00 359.22 160.99 369.84 161.00 C 369.33 163.84 370.74 167.44 368.98 169.83 C 346.68 170.16 324.36 169.75 302.07 170.07 C 300.69 170.00 299.15 170.16 297.97 169.32 C 297.70 166.55 297.97 163.75 297.91 160.97 C 308.14 161.03 318.38 160.93 328.61 161.03 C 328.75 158.00 328.80 154.97 328.58 151.94 C 322.40 152.25 316.22 151.79 310.05 152.01 C 306.92 152.03 303.66 152.42 300.70 151.20 C 300.69 148.47 300.70 145.74 300.79 143.02 C 309.84 142.82 318.90 142.96 327.95 143.00 C 329.09 140.15 328.69 137.05 328.38 134.08 C 320.22 134.26 312.05 134.11 303.89 134.53 C 302.93 134.51 300.77 134.77 300.97 133.21 C 300.69 118.05 300.88 102.88 300.88 87.71 M 310.01 96.69 C 309.72 99.62 309.71 102.57 309.67 105.52 C 316.01 105.41 322.36 105.35 328.70 105.44 C 328.68 102.64 328.67 99.83 328.65 97.03 C 322.45 96.48 316.22 96.93 310.01 96.69 M 337.67 96.65 C 337.80 99.59 337.80 102.54 337.70 105.48 C 343.99 105.47 350.28 105.30 356.56 105.65 C 356.62 102.74 356.70 99.82 356.67 96.91 C 350.34 96.52 344.00 96.95 337.67 96.65 M 310.02 114.96 C 309.99 118.26 309.96 121.55 309.96 124.84 C 316.21 124.99 322.46 124.86 328.71 125.14 C 328.69 121.76 328.56 118.38 328.61 115.00 C 322.42 114.74 316.22 114.99 310.02 114.96 M 337.96 114.85 C 337.95 118.23 337.95 121.61 337.96 124.99 C 344.16 124.94 350.36 125.16 356.54 124.78 C 356.56 121.59 356.58 118.41 356.65 115.24 C 350.46 114.41 344.18 115.04 337.96 114.85 Z" />
<path fill="#df691a" opacity="1.00" d=" M 382.17 88.12 C 401.76 87.81 421.36 88.24 440.96 87.93 C 442.51 88.01 444.19 87.73 445.64 88.45 C 446.49 91.22 445.97 94.19 446.03 97.04 C 424.69 96.73 403.34 97.17 381.99 97.04 C 381.96 94.06 381.97 91.09 382.17 88.12 Z" />
<path fill="#df691a" opacity="1.00" d=" M 246.06 105.03 C 254.46 105.20 262.92 104.50 271.29 105.42 C 271.75 121.08 271.17 136.74 271.31 152.41 C 269.25 152.88 267.14 153.09 265.03 153.02 C 258.82 152.82 252.59 153.37 246.41 152.55 C 246.16 150.71 245.95 148.86 245.97 147.00 C 246.03 133.01 245.98 119.02 246.06 105.03 M 255.38 114.42 C 255.56 124.11 255.43 133.79 255.53 143.48 C 257.80 143.46 260.06 143.45 262.33 143.47 C 262.14 133.82 262.30 124.16 262.26 114.51 C 259.97 114.49 257.67 114.48 255.38 114.42 Z" />
<path fill="#df691a" opacity="1.00" d=" M 379.14 120.99 C 402.76 120.91 426.38 120.80 450.00 120.98 C 450.00 123.71 450.00 126.44 450.01 129.17 C 442.02 129.39 434.02 129.26 426.05 128.87 C 419.87 129.82 413.61 128.64 407.40 129.16 C 406.36 130.89 405.13 132.55 404.46 134.48 C 401.99 142.70 397.55 150.13 394.21 158.00 C 394.13 158.74 393.96 160.21 393.88 160.95 C 407.21 160.87 420.54 161.06 433.87 160.88 C 433.88 159.67 433.90 158.46 433.93 157.24 C 433.29 156.41 432.65 155.59 432.03 154.75 C 431.98 154.21 431.87 153.13 431.82 152.58 C 430.35 150.50 429.86 147.99 429.26 145.57 C 432.75 145.21 436.26 145.42 439.76 145.56 C 440.77 147.82 441.67 150.15 442.39 152.53 C 445.25 157.69 446.64 163.42 446.06 169.32 C 444.12 170.08 442.03 170.13 439.98 170.08 C 421.00 169.92 401.99 170.24 383.01 169.92 C 380.85 164.34 383.29 158.53 385.67 153.45 C 387.19 150.11 388.96 146.87 390.33 143.46 C 392.61 138.82 395.02 134.13 396.06 129.03 C 390.32 129.01 384.57 129.09 378.83 129.01 C 378.97 126.34 379.10 123.67 379.14 120.99 Z" />
<path fill="#df691a" opacity="1.00" d=" M 98.44 122.88 C 102.64 123.29 106.83 123.19 111.03 122.86 C 122.68 122.82 134.34 122.88 146.00 122.84 C 146.00 126.23 146.00 129.62 145.99 133.02 C 130.13 133.00 114.27 133.03 98.41 133.00 C 98.68 129.63 98.68 126.25 98.44 122.88 Z" />
</g>
</svg>
