<?xml version="1.0" encoding="UTF-8" ?>
<!DOCTYPE svg PUBLIC "-//W3C//DTD SVG 1.1//EN" "http://www.w3.org/Graphics/SVG/1.1/DTD/svg11.dtd">
<svg width="125pt" height="125pt" viewBox="0 0 125 125" version="1.1" xmlns="http://www.w3.org/2000/svg">
<g id="#ffffffff">
<path fill="#ffffff" opacity="1.00" d=" M 0.00 0.00 L 125.00 0.00 L 125.00 125.00 L 0.00 125.00 L 0.00 0.00 M 37.31 41.19 C 34.54 44.42 32.42 48.16 29.97 51.63 C 24.38 50.63 20.07 46.41 14.77 44.54 L 14.53 46.38 C 16.97 48.60 20.24 49.62 22.99 51.41 C 18.06 51.53 13.12 51.27 8.19 51.58 C 8.31 61.00 8.03 70.42 8.32 79.83 C 9.66 80.20 11.07 80.17 12.45 80.28 C 13.34 81.50 14.04 83.66 15.94 83.40 C 17.93 83.74 18.69 81.49 19.57 80.20 C 25.18 80.15 30.79 80.17 36.39 80.18 C 37.25 81.47 37.98 83.72 39.95 83.40 C 41.88 83.70 42.59 81.50 43.51 80.28 C 44.84 80.05 46.39 80.47 47.55 79.68 C 47.72 70.27 47.80 60.83 47.48 51.42 C 42.62 51.44 37.75 51.44 32.89 51.43 C 34.77 48.47 36.98 45.72 38.74 42.69 C 38.94 41.57 38.46 41.07 37.31 41.19 M 51.19 46.83 C 53.12 55.75 53.79 64.87 54.91 73.91 C 59.56 73.95 64.56 73.26 68.33 70.30 C 69.65 69.37 70.72 67.11 69.08 65.94 C 65.69 63.42 61.29 63.07 57.21 63.08 C 56.39 56.99 56.30 50.84 56.40 44.70 C 54.66 45.40 52.92 46.11 51.19 46.83 M 84.23 46.77 C 86.09 55.76 87.01 64.90 87.85 74.03 C 92.55 73.78 97.66 73.35 101.45 70.25 C 102.76 69.30 103.77 67.06 102.12 65.94 C 98.76 63.43 94.35 63.05 90.29 63.10 C 89.51 57.04 89.26 50.92 89.47 44.82 C 87.71 45.44 85.97 46.11 84.23 46.77 M 73.32 48.34 C 74.68 55.76 75.43 63.27 76.17 70.77 C 76.81 70.77 78.10 70.77 78.74 70.77 C 77.89 63.24 77.50 55.67 76.90 48.12 C 75.70 48.19 74.51 48.26 73.32 48.34 M 106.35 48.35 C 107.78 55.67 108.39 63.10 109.20 70.50 C 109.83 70.63 111.09 70.88 111.72 71.00 C 111.08 63.38 110.51 55.74 109.93 48.11 C 108.73 48.19 107.54 48.27 106.35 48.35 M 70.64 53.58 C 70.65 54.59 70.67 56.59 70.68 57.60 C 70.40 56.35 70.15 55.10 69.93 53.84 L 68.47 53.87 C 69.15 55.34 68.29 60.14 70.92 57.74 C 71.41 57.83 72.39 58.02 72.88 58.11 C 72.72 56.55 72.56 54.99 72.40 53.44 C 71.96 53.47 71.08 53.55 70.64 53.58 M 103.65 53.32 C 103.66 54.36 103.68 56.43 103.69 57.47 C 103.40 56.27 103.14 55.05 102.90 53.84 L 101.49 53.89 C 102.99 59.76 103.32 65.83 104.89 71.69 C 105.57 71.71 106.93 71.76 107.62 71.79 C 107.21 67.88 106.79 63.98 106.25 60.09 C 105.09 59.40 103.96 58.66 102.85 57.90 L 106.08 57.81 C 105.52 56.15 106.32 53.03 103.65 53.32 M 79.16 54.32 C 79.28 55.71 79.39 57.10 79.50 58.50 C 80.74 58.52 81.98 58.54 83.23 58.53 C 83.21 57.07 83.18 55.61 83.16 54.15 C 81.83 54.20 80.49 54.25 79.16 54.32 M 112.27 54.31 C 112.37 55.71 112.47 57.11 112.57 58.51 C 113.81 58.53 115.06 58.56 116.30 58.52 C 116.26 57.06 116.22 55.59 116.17 54.13 C 114.86 54.18 113.56 54.24 112.27 54.31 M 69.45 59.91 C 70.32 63.84 70.79 67.87 71.92 71.74 C 72.58 71.75 73.89 71.76 74.54 71.76 C 74.14 67.69 73.71 63.63 73.18 59.57 C 72.25 59.66 70.38 59.82 69.45 59.91 M 79.55 60.11 C 79.91 64.17 80.35 68.23 80.69 72.29 C 81.37 72.28 82.73 72.24 83.41 72.22 C 83.37 68.18 83.37 64.14 83.24 60.10 C 82.32 60.10 80.48 60.11 79.55 60.11 M 112.64 60.10 C 112.96 64.17 113.36 68.22 113.72 72.28 C 114.40 72.27 115.76 72.24 116.43 72.23 C 116.41 68.19 116.40 64.14 116.26 60.10 C 115.36 60.10 113.55 60.10 112.64 60.10 M 80.00 77.00 C 79.73 77.79 79.21 79.36 78.94 80.15 L 78.28 80.26 C 76.97 79.49 75.77 78.54 74.64 77.52 C 74.60 79.30 74.57 81.07 74.53 82.85 C 75.53 82.69 76.54 82.55 77.54 82.41 C 77.85 82.35 78.47 82.23 78.77 82.17 L 79.33 82.36 C 79.67 82.53 80.33 82.88 80.66 83.05 C 80.63 81.02 80.39 79.00 80.00 77.00 M 91.67 80.85 C 90.53 80.21 89.37 79.62 88.23 78.99 C 87.89 78.57 87.23 77.72 86.90 77.30 C 86.86 79.09 86.83 80.89 86.82 82.69 C 87.57 82.75 89.06 82.86 89.81 82.92 L 89.67 81.51 C 90.70 82.05 91.72 82.63 92.79 83.12 C 92.71 81.07 92.55 79.04 92.27 77.01 C 92.05 78.29 91.85 79.56 91.67 80.85 M 82.29 78.16 C 81.55 79.52 81.63 81.38 82.22 82.77 C 83.53 82.39 83.67 78.55 82.29 78.16 M 94.85 82.81 C 95.54 81.38 95.53 79.46 94.89 78.01 C 93.60 78.47 93.59 82.28 94.85 82.81 M 96.99 78.15 C 96.32 79.53 96.17 81.47 96.96 82.83 C 98.40 82.38 98.09 78.82 96.99 78.15 M 53.48 79.30 C 54.05 80.68 54.60 82.07 55.16 83.45 C 55.44 82.88 55.99 81.74 56.26 81.17 C 56.62 81.69 57.34 82.75 57.70 83.28 C 58.11 82.19 58.62 81.15 59.21 80.16 C 61.26 80.50 60.66 85.74 62.38 81.19 C 62.73 81.74 63.43 82.82 63.78 83.36 C 64.48 82.40 64.00 79.85 65.79 80.19 C 66.26 81.23 66.69 82.28 67.09 83.35 C 67.48 82.80 68.28 81.69 68.68 81.14 C 68.96 81.72 69.53 82.90 69.82 83.48 C 70.33 81.89 70.82 80.28 71.26 78.67 C 70.73 79.25 69.67 80.41 69.14 80.99 L 68.93 78.59 C 68.63 79.13 68.02 80.19 67.71 80.73 C 66.69 78.63 63.99 78.88 63.05 80.90 L 62.89 78.62 C 62.62 79.13 62.08 80.13 61.81 80.63 C 60.64 79.07 58.82 78.75 57.37 80.20 C 57.18 79.96 56.79 79.50 56.60 79.26 C 55.60 79.92 54.52 79.50 53.48 79.30 M 101.88 79.55 C 101.40 81.11 100.33 82.26 98.86 82.93 C 100.99 82.55 103.33 83.12 105.27 81.97 C 104.12 81.73 102.96 81.53 101.79 81.38 C 102.43 80.76 103.72 79.53 104.37 78.92 C 103.74 79.07 102.50 79.39 101.88 79.55 M 106.17 82.70 C 106.91 82.73 108.40 82.80 109.14 82.83 C 109.79 81.59 109.91 78.96 107.84 79.23 C 105.80 78.71 105.59 81.35 106.17 82.70 M 110.86 79.27 C 110.82 80.49 110.79 81.70 110.76 82.92 L 111.45 82.95 C 111.78 81.79 112.09 80.62 112.40 79.45 C 112.78 80.79 113.15 82.13 113.49 83.48 C 113.84 82.52 114.53 80.59 114.87 79.63 C 115.07 80.61 115.48 82.56 115.68 83.53 C 116.44 82.24 116.25 80.73 116.22 79.31 C 114.43 79.30 112.64 79.29 110.86 79.27 M 72.16 82.25 C 72.84 82.79 72.84 82.79 72.16 82.25 Z" />
<path fill="#ffffff" opacity="1.00" d=" M 10.21 53.43 C 22.02 53.42 33.84 53.41 45.65 53.43 C 45.62 61.65 45.61 69.86 45.65 78.07 C 33.85 78.24 22.04 78.11 10.24 78.14 C 10.20 69.90 10.25 61.67 10.21 53.43 M 12.41 55.46 C 11.90 62.36 12.32 69.31 12.22 76.23 C 21.13 76.56 30.06 76.26 38.98 76.39 C 40.50 76.16 42.41 76.88 43.68 75.84 C 43.90 69.03 43.79 62.20 43.70 55.38 C 33.27 55.32 22.83 55.14 12.41 55.46 Z" />
<path fill="#ffffff" opacity="1.00" d=" M 14.28 57.45 C 23.43 57.43 32.57 57.43 41.72 57.45 C 41.69 63.03 41.64 68.61 41.75 74.19 C 32.63 74.35 23.50 74.16 14.37 74.30 C 14.24 68.68 14.36 63.06 14.28 57.45 M 32.51 60.29 C 32.23 60.68 31.68 61.48 31.40 61.88 C 33.82 63.48 36.20 65.21 38.89 66.33 C 40.28 66.23 39.93 64.59 39.05 64.10 C 36.96 62.68 34.72 61.49 32.51 60.29 M 20.48 61.75 C 18.94 62.85 14.78 63.14 16.38 65.75 C 18.97 65.00 21.83 64.14 23.67 62.05 C 23.02 60.70 21.52 61.22 20.48 61.75 M 25.96 72.30 C 27.65 71.51 29.34 72.05 31.03 72.48 C 33.68 72.77 36.44 67.86 33.15 66.77 C 32.55 68.10 32.19 69.63 31.02 70.61 C 29.50 70.11 29.32 68.32 28.50 67.18 C 26.61 67.17 26.63 70.13 25.02 70.93 C 24.28 69.55 23.61 68.13 22.93 66.73 C 19.50 68.13 23.01 73.61 25.96 72.30 Z" />
<path fill="#ffffff" opacity="1.00" d=" M 59.51 66.03 C 61.21 66.63 62.91 67.25 64.60 67.89 C 63.15 68.97 61.70 70.06 60.22 71.11 C 59.96 69.42 59.72 67.73 59.51 66.03 Z" />
<path fill="#ffffff" opacity="1.00" d=" M 92.53 66.03 C 94.24 66.62 95.94 67.24 97.63 67.88 C 96.21 68.97 94.77 70.05 93.33 71.11 C 93.04 69.42 92.77 67.73 92.53 66.03 Z" />
<path fill="#ffffff" opacity="1.00" d=" M 14.67 80.75 C 15.51 79.32 16.38 79.30 17.30 80.69 C 16.45 82.06 15.58 82.08 14.67 80.75 Z" />
<path fill="#ffffff" opacity="1.00" d=" M 38.64 80.70 C 39.56 79.30 40.43 79.32 41.27 80.75 C 40.34 82.08 39.47 82.07 38.64 80.70 Z" />
<path fill="#ffffff" opacity="1.00" d=" M 76.00 80.30 C 79.33 80.32 74.59 83.43 76.00 80.30 Z" />
<path fill="#ffffff" opacity="1.00" d=" M 88.14 80.28 C 91.45 80.37 86.63 83.38 88.14 80.28 Z" />
<path fill="#ffffff" opacity="1.00" d=" M 107.23 80.31 C 110.60 80.35 105.79 83.43 107.23 80.31 Z" />
</g>
<g id="#020202ff">
<path fill="#020202" opacity="1.00" d=" M 37.31 41.19 C 38.46 41.07 38.94 41.57 38.74 42.69 C 36.98 45.72 34.77 48.47 32.89 51.43 C 37.75 51.44 42.62 51.44 47.48 51.42 C 47.80 60.83 47.72 70.27 47.55 79.68 C 46.39 80.47 44.84 80.05 43.51 80.28 C 42.59 81.50 41.88 83.70 39.95 83.40 C 37.98 83.72 37.25 81.47 36.39 80.18 C 30.79 80.17 25.18 80.15 19.57 80.20 C 18.69 81.49 17.93 83.74 15.94 83.40 C 14.04 83.66 13.34 81.50 12.45 80.28 C 11.07 80.17 9.66 80.20 8.32 79.83 C 8.03 70.42 8.31 61.00 8.19 51.58 C 13.12 51.27 18.06 51.53 22.99 51.41 C 20.24 49.62 16.97 48.60 14.53 46.38 L 14.77 44.54 C 20.07 46.41 24.38 50.63 29.97 51.63 C 32.42 48.16 34.54 44.42 37.31 41.19 M 10.21 53.43 C 10.25 61.67 10.20 69.90 10.24 78.14 C 22.04 78.11 33.85 78.24 45.65 78.07 C 45.61 69.86 45.62 61.65 45.65 53.43 C 33.84 53.41 22.02 53.42 10.21 53.43 M 14.67 80.75 C 15.58 82.08 16.45 82.06 17.30 80.69 C 16.38 79.30 15.51 79.32 14.67 80.75 M 38.64 80.70 C 39.47 82.07 40.34 82.08 41.27 80.75 C 40.43 79.32 39.56 79.30 38.64 80.70 Z" />
<path fill="#020202" opacity="1.00" d=" M 51.19 46.83 C 52.92 46.11 54.66 45.40 56.40 44.70 C 56.30 50.84 56.39 56.99 57.21 63.08 C 61.29 63.07 65.69 63.42 69.08 65.94 C 70.72 67.11 69.65 69.37 68.33 70.30 C 64.56 73.26 59.56 73.95 54.91 73.91 C 53.79 64.87 53.12 55.75 51.19 46.83 M 59.51 66.03 C 59.72 67.73 59.96 69.42 60.22 71.11 C 61.70 70.06 63.15 68.97 64.60 67.89 C 62.91 67.25 61.21 66.63 59.51 66.03 Z" />
<path fill="#020202" opacity="1.00" d=" M 84.23 46.77 C 85.97 46.11 87.71 45.44 89.47 44.82 C 89.26 50.92 89.51 57.04 90.29 63.10 C 94.35 63.05 98.76 63.43 102.12 65.94 C 103.77 67.06 102.76 69.30 101.45 70.25 C 97.66 73.35 92.55 73.78 87.85 74.03 C 87.01 64.90 86.09 55.76 84.23 46.77 M 92.53 66.03 C 92.77 67.73 93.04 69.42 93.33 71.11 C 94.77 70.05 96.21 68.97 97.63 67.88 C 95.94 67.24 94.24 66.62 92.53 66.03 Z" />
<path fill="#020202" opacity="1.00" d=" M 73.32 48.34 C 74.51 48.26 75.70 48.19 76.90 48.12 C 77.50 55.67 77.89 63.24 78.74 70.77 C 78.10 70.77 76.81 70.77 76.17 70.77 C 75.43 63.27 74.68 55.76 73.32 48.34 Z" />
<path fill="#020202" opacity="1.00" d=" M 106.35 48.35 C 107.54 48.27 108.73 48.19 109.93 48.11 C 110.51 55.74 111.08 63.38 111.72 71.00 C 111.09 70.88 109.83 70.63 109.20 70.50 C 108.39 63.10 107.78 55.67 106.35 48.35 Z" />
<path fill="#020202" opacity="1.00" d=" M 70.64 53.58 C 71.08 53.55 71.96 53.47 72.40 53.44 C 72.56 54.99 72.72 56.55 72.88 58.11 C 72.39 58.02 71.41 57.83 70.92 57.74 C 68.29 60.14 69.15 55.34 68.47 53.87 L 69.93 53.84 C 70.15 55.10 70.40 56.35 70.68 57.60 C 70.67 56.59 70.65 54.59 70.64 53.58 Z" />
<path fill="#020202" opacity="1.00" d=" M 103.65 53.32 C 106.32 53.03 105.52 56.15 106.08 57.81 L 102.85 57.90 C 103.96 58.66 105.09 59.40 106.25 60.09 C 106.79 63.98 107.21 67.88 107.62 71.79 C 106.93 71.76 105.57 71.71 104.89 71.69 C 103.32 65.83 102.99 59.76 101.49 53.89 L 102.90 53.84 C 103.14 55.05 103.40 56.27 103.69 57.47 C 103.68 56.43 103.66 54.36 103.65 53.32 Z" />
<path fill="#020202" opacity="1.00" d=" M 79.16 54.32 C 80.49 54.25 81.83 54.20 83.16 54.15 C 83.18 55.61 83.21 57.07 83.23 58.53 C 81.98 58.54 80.74 58.52 79.50 58.50 C 79.39 57.10 79.28 55.71 79.16 54.32 Z" />
<path fill="#020202" opacity="1.00" d=" M 112.27 54.31 C 113.56 54.24 114.86 54.18 116.17 54.13 C 116.22 55.59 116.26 57.06 116.30 58.52 C 115.06 58.56 113.81 58.53 112.57 58.51 C 112.47 57.11 112.37 55.71 112.27 54.31 Z" />
<path fill="#020202" opacity="1.00" d=" M 12.41 55.46 C 22.83 55.14 33.27 55.32 43.70 55.38 C 43.79 62.20 43.90 69.03 43.68 75.84 C 42.41 76.88 40.50 76.16 38.98 76.39 C 30.06 76.26 21.13 76.56 12.22 76.23 C 12.32 69.31 11.90 62.36 12.41 55.46 M 14.28 57.45 C 14.36 63.06 14.24 68.68 14.37 74.30 C 23.50 74.16 32.63 74.35 41.75 74.19 C 41.64 68.61 41.69 63.03 41.72 57.45 C 32.57 57.43 23.43 57.43 14.28 57.45 Z" />
<path fill="#020202" opacity="1.00" d=" M 32.51 60.29 C 34.72 61.49 36.96 62.68 39.05 64.10 C 39.93 64.59 40.28 66.23 38.89 66.33 C 36.20 65.21 33.82 63.48 31.40 61.88 C 31.68 61.48 32.23 60.68 32.51 60.29 Z" />
<path fill="#020202" opacity="1.00" d=" M 69.45 59.91 C 70.38 59.82 72.25 59.66 73.18 59.57 C 73.71 63.63 74.14 67.69 74.54 71.76 C 73.89 71.76 72.58 71.75 71.92 71.74 C 70.79 67.87 70.32 63.84 69.45 59.91 Z" />
<path fill="#020202" opacity="1.00" d=" M 79.55 60.11 C 80.48 60.11 82.32 60.10 83.24 60.10 C 83.37 64.14 83.37 68.18 83.41 72.22 C 82.73 72.24 81.37 72.28 80.69 72.29 C 80.35 68.23 79.91 64.17 79.55 60.11 Z" />
<path fill="#020202" opacity="1.00" d=" M 112.64 60.10 C 113.55 60.10 115.36 60.10 116.26 60.10 C 116.40 64.14 116.41 68.19 116.43 72.23 C 115.76 72.24 114.40 72.27 113.72 72.28 C 113.36 68.22 112.96 64.17 112.64 60.10 Z" />
<path fill="#020202" opacity="1.00" d=" M 20.48 61.75 C 21.52 61.22 23.02 60.70 23.67 62.05 C 21.83 64.14 18.97 65.00 16.38 65.75 C 14.78 63.14 18.94 62.85 20.48 61.75 Z" />
<path fill="#020202" opacity="1.00" d=" M 25.96 72.30 C 23.01 73.61 19.50 68.13 22.93 66.73 C 23.61 68.13 24.28 69.55 25.02 70.93 C 26.63 70.13 26.61 67.17 28.50 67.18 C 29.32 68.32 29.50 70.11 31.02 70.61 C 32.19 69.63 32.55 68.10 33.15 66.77 C 36.44 67.86 33.68 72.77 31.03 72.48 C 29.34 72.05 27.65 71.51 25.96 72.30 Z" />
<path fill="#020202" opacity="1.00" d=" M 80.00 77.00 C 80.39 79.00 80.63 81.02 80.66 83.05 C 80.33 82.88 79.67 82.53 79.33 82.36 L 78.77 82.17 C 78.47 82.23 77.85 82.35 77.54 82.41 C 76.54 82.55 75.53 82.69 74.53 82.85 C 74.57 81.07 74.60 79.30 74.64 77.52 C 75.77 78.54 76.97 79.49 78.28 80.26 L 78.94 80.15 C 79.21 79.36 79.73 77.79 80.00 77.00 M 76.00 80.30 C 74.59 83.43 79.33 80.32 76.00 80.30 Z" />
<path fill="#020202" opacity="1.00" d=" M 91.67 80.85 C 91.85 79.56 92.05 78.29 92.27 77.01 C 92.55 79.04 92.71 81.07 92.79 83.12 C 91.72 82.63 90.70 82.05 89.67 81.51 L 89.81 82.92 C 89.06 82.86 87.57 82.75 86.82 82.69 C 86.83 80.89 86.86 79.09 86.90 77.30 C 87.23 77.72 87.89 78.57 88.23 78.99 C 89.37 79.62 90.53 80.21 91.67 80.85 M 88.14 80.28 C 86.63 83.38 91.45 80.37 88.14 80.28 Z" />
<path fill="#020202" opacity="1.00" d=" M 82.29 78.16 C 83.67 78.55 83.53 82.39 82.22 82.77 C 81.63 81.38 81.55 79.52 82.29 78.16 Z" />
<path fill="#020202" opacity="1.00" d=" M 94.85 82.81 C 93.59 82.28 93.60 78.47 94.89 78.01 C 95.53 79.46 95.54 81.38 94.85 82.81 Z" />
<path fill="#020202" opacity="1.00" d=" M 96.99 78.15 C 98.09 78.82 98.40 82.38 96.96 82.83 C 96.17 81.47 96.32 79.53 96.99 78.15 Z" />
<path fill="#020202" opacity="1.00" d=" M 53.48 79.30 C 54.52 79.50 55.60 79.92 56.60 79.26 C 56.79 79.50 57.18 79.96 57.37 80.20 C 58.82 78.75 60.64 79.07 61.81 80.63 C 62.08 80.13 62.62 79.13 62.89 78.62 L 63.05 80.90 C 63.99 78.88 66.69 78.63 67.71 80.73 C 68.02 80.19 68.63 79.13 68.93 78.59 L 69.14 80.99 C 69.67 80.41 70.73 79.25 71.26 78.67 C 70.82 80.28 70.33 81.89 69.82 83.48 C 69.53 82.90 68.96 81.72 68.68 81.14 C 68.28 81.69 67.48 82.80 67.09 83.35 C 66.69 82.28 66.26 81.23 65.79 80.19 C 64.00 79.85 64.48 82.40 63.78 83.36 C 63.43 82.82 62.73 81.74 62.38 81.19 C 60.66 85.74 61.26 80.50 59.21 80.16 C 58.62 81.15 58.11 82.19 57.70 83.28 C 57.34 82.75 56.62 81.69 56.26 81.17 C 55.99 81.74 55.44 82.88 55.16 83.45 C 54.60 82.07 54.05 80.68 53.48 79.30 Z" />
<path fill="#020202" opacity="1.00" d=" M 101.88 79.55 C 102.50 79.39 103.74 79.07 104.37 78.92 C 103.72 79.53 102.43 80.76 101.79 81.38 C 102.96 81.53 104.12 81.73 105.27 81.97 C 103.33 83.12 100.99 82.55 98.86 82.93 C 100.33 82.26 101.40 81.11 101.88 79.55 Z" />
<path fill="#020202" opacity="1.00" d=" M 106.17 82.70 C 105.59 81.35 105.80 78.71 107.84 79.23 C 109.91 78.96 109.79 81.59 109.14 82.83 C 108.40 82.80 106.91 82.73 106.17 82.70 M 107.23 80.31 C 105.79 83.43 110.60 80.35 107.23 80.31 Z" />
<path fill="#020202" opacity="1.00" d=" M 110.86 79.27 C 112.64 79.29 114.43 79.30 116.22 79.31 C 116.25 80.73 116.44 82.24 115.68 83.53 C 115.48 82.56 115.07 80.61 114.87 79.63 C 114.53 80.59 113.84 82.52 113.49 83.48 C 113.15 82.13 112.78 80.79 112.40 79.45 C 112.09 80.62 111.78 81.79 111.45 82.95 L 110.76 82.92 C 110.79 81.70 110.82 80.49 110.86 79.27 Z" />
<path fill="#020202" opacity="1.00" d=" M 72.16 82.25 C 72.84 82.79 72.84 82.79 72.16 82.25 Z" />
</g>
</svg>
